Coordinates
version=1
nRows=11
nColumns=36
inDegrees=yes

Units are S.I. units (second, meters, Newtons, ...)
If the header above contains a line with 'inDegrees', this indicates whether rotational values are in degrees (yes) or radians (no).

endheader
time	pelvis_tilt	pelvis_list	pelvis_rotation	pelvis_tx	pelvis_ty	pelvis_tz	hip_flexion_r	hip_adduction_r	hip_rotation_r	knee_angle_r	knee_angle_r_beta	ankle_angle_r	subtalar_angle_r	mtp_angle_r	hip_flexion_l	hip_adduction_l	hip_rotation_l	knee_angle_l	knee_angle_l_beta	ankle_angle_l	subtalar_angle_l	mtp_angle_l	lumbar_extension	lumbar_bending	lumbar_rotation	arm_flex_r	arm_add_r	arm_rot_r	elbow_flex_r	pro_sup_r	arm_flex_l	arm_add_l	arm_rot_l	elbow_flex_l	pro_sup_l
      1.43333330	     -8.81313113	      0.06978847	    -18.43103304	      1.03532852	      0.92188045	     -0.02222234	     36.50203415	      1.28639473	      0.27109743	     74.67669302	      1.30335417	      9.95249725	    -15.15461078	     -7.49936894	     11.67610199	      3.58039004	      6.72318073	     15.30796632	      0.26717441	      5.62610108	    -10.83892898	     -7.49936894	      5.54934024	      0.20655829	     -5.05324121	     31.57475222	      8.66830929	     56.65638754	    111.78257012	     99.56151957	     47.70368656	      6.52484712	     66.53485920	    114.96569023	     90.28867406
      1.45000000	     -9.11097713	      0.44309797	    -18.42097051	      1.03608218	      0.92137091	     -0.02194680	     36.88785668	      1.22935215	     -0.12961059	     78.09077991	      1.36294122	      9.18023955	    -15.81661227	     -7.49938540	     11.79895426	      3.90011532	      6.40816168	     14.56046751	      0.25412810	      5.32498996	    -10.57515406	     -7.49938540	      6.04041435	     -0.33329762	     -4.98529240	     31.49384540	      8.67859787	     56.78978850	    112.33991981	     99.41778419	     47.70709139	      6.71436273	     66.54006356	    115.07172452	     90.20826513
      1.46666670	     -9.51128579	      0.61835688	    -18.43356799	      1.03684166	      0.92102564	     -0.02193067	     37.11400576	      1.31755195	     -0.51891394	     80.32559107	      1.40194604	      8.90980075	    -16.53170334	     -7.49939271	     11.90501950	      3.94331904	      6.17176702	     13.72621042	      0.23956757	      5.05420410	    -10.43428514	     -7.49939271	      6.33332836	     -0.44585891	     -4.96498571	     31.43541208	      8.75003402	     57.02978131	    112.45512866	     99.55684169	     47.71197484	      6.86290562	     66.75641591	    114.84507164	     90.29651310
      1.48333330	     -9.85669047	      0.69170072	    -18.41677118	      1.03725194	      0.92071239	     -0.02193889	     37.18192620	      1.50964022	     -0.63175665	     81.84474825	      1.42846033	      9.83479446	    -17.36733286	     -7.49939937	     12.08855643	      3.91755683	      5.78195680	     13.01639319	      0.22717892	      4.74506587	    -10.26337322	     -7.49939937	      6.52209110	     -0.42930993	     -5.14790378	     31.53843381	      8.90380892	     57.21075531	    113.03747296	     99.56659486	     47.88808669	      7.02838733	     66.97902010	    114.96260698	     90.31500821
      1.50000000	    -10.10935132	      0.80817821	    -18.44269374	      1.03779473	      0.92066938	     -0.02200116	     36.56419341	      1.70000000	     -0.65197205	     82.39360467	      1.43803968	     11.38947038	    -18.22371417	     -7.49940213	     12.32406596	      3.98879398	      5.40133208	     12.70628158	      0.22176645	      4.64640643	    -10.30840491	     -7.49940213	      6.63478183	     -0.57126525	     -5.19933297	     31.28930645	      8.73683122	     57.49891857	    113.39589174	     99.62895323	     48.02644546	      6.84622223	     67.09529295	    115.16177783	     90.35550728
      1.51666670	    -10.23458951	      1.05967356	    -18.60863011	      1.03775642	      0.92329381	     -0.02121071	     36.12127193	      1.81162198	     -0.27095013	     82.52270178	      1.44029285	     12.95834070	    -18.06104660	     -7.49941549	     12.37036466	      4.24847159	      5.08584857	     12.20347953	      0.21299090	      4.20304549	    -10.32478402	     -7.49941549	      6.33063862	     -0.91997814	     -4.89458989	     31.21366833	      8.65847733	     58.34670693	    114.10989893	     99.92530215	     48.29592948	      6.64190639	     67.69128030	    115.50092678	     90.55187046
      1.53333330	    -10.39554374	      1.21643843	    -18.67450934	      1.03817337	      0.92324515	     -0.02103075	     35.37324535	      2.01089041	     -0.10560935	     81.65979988	      1.42523237	     14.32496706	    -18.66249877	     -7.49943253	     12.57215698	      4.44321900	      5.02566132	     12.07947646	      0.21082664	      4.12746826	    -10.41896893	     -7.49943253	      6.36427878	     -1.11837443	     -4.64172350	     31.07682884	      8.81667816	     58.43019733	    114.48015374	     99.71958815	     48.13353387	      6.57548280	     67.80747829	    115.51409330	     90.23009744
      1.55000000	    -10.37353924	      1.24792096	    -18.74345866	      1.03816448	      0.92338345	     -0.02094884	     34.57396636	      2.11847807	     -0.04076209	     80.97366793	      1.41325711	     15.81967458	    -18.99375892	     -7.49945245	     12.54374974	      4.60035845	      5.06161508	     12.03666274	      0.21007940	      4.05669562	    -10.62388526	     -7.49945245	      6.01333193	     -1.21101055	     -4.21778875	     31.08178685	      8.82279198	     58.44741090	    115.28334445	     99.67843231	     48.19421208	      6.77966771	     67.91640943	    115.64620308	     90.18305051
      1.56666670	    -10.54961588	      1.43664467	    -18.76582996	      1.03845173	      0.92354452	     -0.02078028	     34.20710567	      2.22053232	      0.30023879	     80.50434332	      1.40506585	     17.41013927	    -19.19736164	     -7.49947477	     12.94118488	      4.86144889	      4.92121373	     12.24516528	      0.21371845	      4.10671919	    -10.54178569	     -7.49947477	      6.11971393	     -1.45377935	     -3.92869123	     31.08892785	      9.03315532	     58.56604731	    115.44222192	     98.93643144	     48.08989221	      6.97864221	     68.10035943	    115.45875371	     89.78040958
      1.58333330	    -10.75164049	      1.67798038	    -18.96168170	      1.03862200	      0.92337628	     -0.02043885	     33.82390115	      2.27745244	      0.67481735	     79.92066663	      1.39487877	     19.16933952	    -18.77249826	     -7.49949557	     13.33050203	      5.10421023	      4.82886681	     12.42625141	      0.21687900	      3.95527121	    -10.84273909	     -7.49949557	      6.15083435	     -1.55216056	     -3.35908306	     31.10971396	      9.06960023	     58.82557979	    116.09187513	     98.79626589	     48.15905325	      7.31678160	     68.39135575	    115.56053195	     89.65843373
      1.60000000	    -10.99031095	      1.91225408	    -19.07840571	      1.03892502	      0.92325419	     -0.02017569	     33.57663430	      2.30413686	      0.93743316	     79.35329951	      1.38497635	     20.66843149	    -18.51105466	     -7.49951759	     13.67192833	      5.32033107	      4.68707957	     12.51046409	      0.21834879	      3.87529495	    -10.90077151	     -7.49951759	      6.33597990	     -1.71049422	     -2.95542849	     31.03393412	      9.04579646	     59.01094336	    116.43057262	     98.48253066	     47.97820381	      7.50983537	     68.67211763	    115.55682666	     89.36438485
